<?xml version="1.0"?>
<svg version="1.1" xmlns="http://www.w3.org/2000/svg" width="280" height="180" style=""><path fill="#ffffff" d="M55.2,148.8q-2.4,3.7-2.4,4.85t0.9,1.55q0,0.2-1.65,1.25t-4.55,1.05t-2.9-1.5q0-2.6,9.85-17.25t12.95-20.25q6.8-12.2,6.8-19.3q0-2.8-1.1-5.2q-1.7-3.6-8.2-3.6q-11.9,0-25.3,10.9q-10.2,8.4-15.7,17.4q-5,8.5-5,15.2q0,9.6,8.9,9.8l0.8,0q11.8,0,17.9-8.3q2.4-3.3,2.4-5.6t-1.1-2.9q-0.1-0.1-0.1-0.4t0.6-0.3q2.6,0,2.6,3.4q0,2.1-2,5.7t-7.25,6.8t-11.95,3.2t-10.6-3.9t-3.9-10.5q0-15.6,21.4-32.8q5.4-4.3,14.05-7.2t15.7-2.9t9.95,2.65t2.9,7.35q0,11.4-13.8,32.3q3.1-3.9,10.1-9.9q24.9-20.9,42.8-27.5q0.9-0.4,2-0.4q3.8,0,4.8,4.3q0.5,1.7-4.8,7.1q-12.5,12.8-21.2,28t-8.7,21.8q0,1.6,0.6,2.25t1.9,0.4t5.45-2.05t5.45-2.1q0.5,0.2,0.5,0.5q0,1.5-5.25,4.2t-7.85,2.7t-3.3-0.9q-1.8-2.5-1.8-6.3q0-8.6,9.2-24.7q5.9-10.1,18.2-27.2q-13.3,1.2-34.4,21q-16.8,15.9-23.9,27.3z M145.117,120.1l1.4-0.3q1.1,0,2.1,0.9t1,1.4t-6.2,9.65t-6.2,12.75q0,0.3,0.1,0.6q0.5,2.3,2.2,2.3q5.2,0,19-17.2q0.3-0.4,0.7-0.4t0.4,0.75t-0.9,1.95q-12.8,17.1-19.5,17.1q-0.9,0-1.7-0.3q-4.4-1.7-4.4-6.6q0-1.7,0.4-3.4l-6.2,6q-5.9,5.2-8.55,5.2t-5.05-1.7q-2.7-2-2.7-5.3q0-7.3,10.2-17.45t18.7-10.15q3.3,0,4.4,2.3q0.3,0.8,0.5,1.35t0.3,0.55z M115.217,144.7q0,3.6,2.5,3.6q5.8,0,15.8-12.7l10.6-14.6q-0.8-1.4-2.6-1.4q-6.1,0-16.2,9.45t-10.1,15.65z M198.334,101.1q0,3.1-1.8,3.1q-0.5,0-1-0.8q-0.9-1.6-3-1.6q-4.6,0-8.6,6.6q-0.8,1.3-5,9.4l1.2,0q10.9,0,14.5-0.3q0.4,0.1,0.4,0.4q0,0.8-7.1,2.2q-6.7,1.1-11,1.9q-3.1,6.4-7.5,15.2q-9,16.8-11.9,20.9q-8.7,12.4-17,12.4q-2.9,0-5.05-2.45t-2.25-5.45q0.3-1.2,0.9-1.2q0.3,0,0.4,0.7q0.6,2.6,2,4t2.9,1.4q8.5,0,15.5-10.5q4-6,10.9-21.6l5.4-13q-10-0.1-10-2.4q0-1,0.95-1.7t1.65-0.7l9.4,0.2q9.8-21.8,18-21.8q3.1,0,6.3,3q0.8,0.8,0.8,2.1z M219.351,120.1l1.4-0.3q1.1,0,2.1,0.9t1,1.4t-6.2,9.65t-6.2,12.75q0,0.3,0.1,0.6q0.5,2.3,2.2,2.3q5.2,0,19-17.2q0.3-0.4,0.7-0.4t0.4,0.75t-0.9,1.95q-12.8,17.1-19.5,17.1q-0.9,0-1.7-0.3q-4.4-1.7-4.4-6.6q0-1.7,0.4-3.4l-6.2,6q-5.9,5.2-8.55,5.2t-5.05-1.7q-2.7-2-2.7-5.3q0-7.3,10.2-17.45t18.7-10.15q3.3,0,4.4,2.3q0.3,0.8,0.5,1.35t0.3,0.55z M189.451,144.7q0,3.6,2.5,3.6q5.8,0,15.8-12.7l10.6-14.6q-0.8-1.4-2.6-1.4q-6.1,0-16.2,9.45t-10.1,15.65z M226.168,161.6q4.8,6,8.3,6q5.7,0,12.3-9.1q4.8-6.7,9.4-16.9l3.8-9.2l-14.7,11.5q-6.8,5.3-10.9,5.3q-2.2,0-3.5-1.5t-1.3-3.4q0-4.3,7.4-14.15t10.8-9.85t3.4,2.3q0,0.9-8.85,10.35t-8.85,12.75q0,1.3,1.7,1.3q3.2,0,12.85-7.5t14.55-12.4q1.1-1.3,3.1-3.9q1.9-2.2,4.2-2.2t2.3,2.2q0,0.4-4.5,7.1t-4.7,7.1q-3.1,6-9.5,17.5q-9.7,15.6-19.4,15.6q-3.2,0-5.6-2.75t-2.3-6.15z"/><path fill="#" d=""/></svg>
